<svg width="1440" height="603" viewBox="0 0 1440 603" fill="none" xmlns="http://www.w3.org/2000/svg">
<path d="M18.7282 163.86C21.484 160.678 81.8364 155.269 100.025 153.678C118.213 152.087 143.291 168.315 155.968 171.497C168.645 174.679 212.462 149.223 250.768 153.678C271.436 155.905 329.033 170.543 329.033 170.543C335.654 167.073 342.735 164.921 349.977 164.178C359.898 164.178 379.464 183.907 387.732 186.135C395.999 188.362 424.109 200.772 433.754 202.363C443.399 203.954 461.863 215.728 482.807 218.592C503.752 221.456 506.508 215.728 516.153 218.592C525.798 221.456 544.813 208.091 578.159 223.683C582.568 225.911 622.527 240.23 628.866 238.321C658.904 229.411 666.069 208.727 689.218 216.364C712.367 224.001 722.288 250.413 747.641 240.23C772.995 230.047 802.482 245.958 815.159 238.321C827.836 230.684 841.615 228.456 862.008 230.684C882.401 232.911 893.424 237.366 911.337 239.912C929.25 242.457 941.926 240.548 962.319 245.958C982.712 251.367 992.909 239.594 1003.11 239.594C1013.3 239.594 1033.97 214.455 1049.13 228.138C1064.28 241.821 1097.63 234.82 1107.83 232.275C1118.02 229.729 1138.42 238.321 1145.31 241.503C1164.87 229.729 1181.41 207.773 1191.33 203.954C1224.95 190.908 1224.95 166.724 1271.52 166.724C1294.67 166.724 1341.52 181.043 1384.23 166.724C1421.71 154.314 1581 187.726 1581 187.726V420.017L18.7282 418.108V163.86Z" fill="#20232D"/>
<path d="M1482.44 21.0017C1481.62 20.047 1480.24 19.7288 1479.41 18.456C1478.59 17.1832 1476.66 14.0011 1478.86 10.819C1481.07 7.63697 1477.48 7.95518 1475.83 6.04594C1474.93 4.19942 1474.46 2.11806 1474.45 0C1466.74 0.636414 1468.11 7.31875 1466.19 13.3647C1464.26 19.4106 1468.39 18.456 1466.46 22.5927C1464.53 26.7294 1457.09 21.9563 1459.3 28.3204C1461.5 34.6846 1465.63 31.1843 1461.5 37.8666C1457.37 44.549 1441.11 39.1395 1442.21 42.0033C1443.31 44.8672 1454.06 44.2308 1455.16 48.0493C1456.26 51.8677 1455.44 55.0498 1451.58 59.5047C1447.72 63.9596 1443.86 60.7775 1442.76 64.9142C1441.66 69.0509 1445.79 72.8694 1443.59 72.8694C1441.38 72.8694 1437.8 71.2784 1438.35 75.4151C1438.9 79.5518 1441.93 80.8246 1442.76 85.9159C1443.59 91.0072 1439.45 86.2341 1434.77 90.3708C1430.08 94.5075 1446.34 99.2806 1442.76 103.735C1439.18 108.19 1428.16 97.3714 1428.43 103.099C1428.71 108.827 1438.35 114.555 1432.01 114.555C1425.68 114.555 1424.85 114.555 1428.43 120.6C1432.01 126.646 1440.56 129.828 1438.63 133.329C1436.7 136.829 1425.4 135.874 1425.68 140.647C1425.95 145.421 1431.74 146.375 1433.12 151.785C1434.49 157.194 1423.75 154.33 1416.58 158.785C1409.42 163.24 1408.59 165.149 1412.45 167.059C1416.31 168.968 1423.75 167.059 1431.46 167.377C1439.18 167.695 1432.01 169.923 1428.71 177.241C1425.4 184.56 1421.54 181.06 1414.38 181.06C1407.21 181.06 1410.24 187.106 1412.17 191.242C1414.1 195.379 1414.1 194.743 1421.82 193.47C1429.53 192.197 1425.95 197.288 1420.44 202.38C1414.93 207.471 1408.31 208.744 1398.94 210.017C1389.57 211.289 1386.82 205.88 1383.51 210.335C1380.2 214.79 1386.82 217.017 1392.33 220.836C1389.49 221.939 1386.51 222.477 1383.51 222.427C1380.2 222.427 1370.01 220.199 1375.52 213.835C1381.03 207.471 1386.27 188.06 1382.13 189.651C1378 191.242 1377.45 195.379 1368.08 193.788C1358.71 192.197 1368.63 181.696 1371.39 175.014C1374.14 168.332 1371.94 166.104 1365.87 172.468C1359.81 178.832 1357.33 172.468 1355.13 167.695C1352.92 162.922 1357.33 156.24 1355.13 148.603C1354.3 144.63 1352.7 140.929 1350.44 137.784C1343.83 137.147 1342.45 141.284 1342.17 147.966C1341.9 154.649 1335.01 170.877 1332.25 166.74C1329.5 162.604 1327.02 157.512 1325.64 167.377C1324.26 177.241 1334.46 183.287 1328.4 180.742C1322.33 178.196 1324.26 171.514 1318.75 177.56C1313.24 183.605 1319.58 184.878 1325.64 191.242C1331.7 197.607 1326.19 202.061 1322.33 201.425C1317.5 200.342 1312.97 197.942 1309.1 194.425L1311.86 190.606C1312.96 187.106 1316.82 177.241 1311.86 180.742C1306.9 184.242 1299.73 186.151 1297.53 184.242C1295.33 182.333 1298.08 176.287 1301.66 171.832C1305.25 167.377 1307.18 157.512 1302.77 159.74C1298.36 161.967 1295.88 170.241 1292.84 168.331C1289.81 166.422 1293.12 159.422 1294.77 154.33C1296.43 149.239 1300.29 143.511 1296.43 145.102C1292.57 146.693 1292.84 142.875 1290.09 142.239C1287.33 141.602 1290.36 123.464 1288.16 121.873C1285.96 120.282 1287.61 137.784 1286.51 140.966C1285.4 144.148 1280.44 140.647 1278.24 140.647C1276.03 140.647 1284.58 150.512 1284.3 153.058C1284.03 155.603 1272.45 155.285 1271.35 150.512C1270.25 145.739 1268.87 154.649 1273.28 160.058C1277.69 165.468 1280.44 180.105 1278.51 180.742C1276.59 181.378 1264.18 171.514 1261.98 165.786C1259.78 160.058 1264.18 190.288 1270.52 194.743C1276.86 199.198 1270.52 198.879 1263.91 202.38C1257.29 205.88 1258.67 210.971 1263.08 213.835C1267.49 216.699 1276.03 225.291 1274.66 227.836C1273.28 230.382 1255.64 223.381 1251.51 219.245C1247.37 215.108 1251.78 224.654 1253.71 230.382C1255.64 236.11 1264.18 244.383 1265.29 251.384C1266.39 258.384 1255.92 256.793 1253.16 258.702C1250.41 260.612 1253.16 263.794 1256.47 266.339C1259.78 268.885 1265.29 279.068 1260.05 280.34C1254.81 281.613 1248.48 279.068 1242.41 275.885C1242.41 272.385 1241.86 270.476 1239.38 273.976C1237.58 273.123 1236.11 271.538 1235.25 269.521C1234.15 263.475 1231.67 272.385 1233.32 278.749C1233.54 279.479 1233.72 280.223 1233.87 280.977C1230.6 284.395 1226.75 286.995 1222.57 288.614C1219.82 288.614 1216.23 288.296 1215.96 286.386H1215.68L1217.06 284.477L1222.57 283.522C1227.26 282.568 1231.11 278.749 1231.11 277.158C1231.11 275.567 1226.98 276.522 1222.57 277.477H1221.47C1223.07 274.101 1224.46 270.591 1225.6 266.976C1229.46 265.066 1233.59 263.157 1229.19 263.475H1226.71C1228.36 257.748 1228.91 253.293 1227.53 255.202C1224.64 257.841 1221.02 259.195 1217.34 259.021L1214.58 258.384C1214.86 258.066 1214.86 257.43 1215.13 257.111C1215.41 256.793 1219.54 254.247 1216.78 252.975C1214.03 251.702 1211.27 252.975 1209.62 252.338C1207.97 251.702 1210.17 251.065 1210.72 250.111C1211.81 248.205 1212.73 246.18 1213.48 244.065C1216.78 235.473 1218.71 223.063 1216.23 224.336C1213.75 225.609 1212.38 230.382 1204.38 228.791C1196.39 227.2 1204.93 216.063 1207.14 209.062C1209.34 202.061 1207.97 199.516 1202.73 206.198C1197.49 212.881 1195.56 206.198 1193.91 201.107C1192.26 196.016 1195.56 189.015 1193.91 180.742C1193.26 176.529 1191.85 172.519 1189.78 168.968C1184.27 168.65 1183.16 173.105 1183.16 180.105C1183.16 187.106 1177.1 204.607 1174.9 200.152C1172.69 195.697 1170.21 189.97 1169.11 200.47C1168.78 204.848 1169.76 209.223 1171.86 212.88L1170.49 214.153C1166.63 211.289 1167.73 205.562 1163.6 211.608C1159.46 217.654 1161.94 218.29 1164.98 221.154C1164.76 221.282 1164.57 221.464 1164.42 221.685C1164.28 221.907 1164.17 222.163 1164.12 222.437C1164.07 222.71 1164.07 222.993 1164.12 223.266C1164.17 223.54 1164.28 223.796 1164.42 224.018C1166.08 227.518 1166.35 225.609 1163.32 229.427C1162.57 230.287 1161.66 230.935 1160.65 231.321C1159.65 231.707 1158.58 231.821 1157.53 231.655L1153.4 227.2C1148.99 221.79 1148.44 223.381 1148.44 230.382C1148.44 237.382 1153.13 238.655 1157.53 242.474C1157.37 242.853 1157.13 243.19 1156.85 243.463C1156.56 243.737 1156.23 243.941 1155.88 244.065C1152.85 246.929 1150.37 245.019 1149.54 247.247C1148.72 249.474 1151.75 251.702 1150.09 251.702C1148.44 251.702 1145.96 251.065 1146.24 253.293C1146.51 255.52 1148.99 256.157 1149.54 259.339C1150.09 262.521 1141.55 263.794 1138.24 266.021C1134.94 268.249 1137.42 266.976 1137.69 267.294C1137.97 267.612 1136.31 267.93 1135.49 269.203L1134.11 272.385L1133.56 273.34V273.976C1133.18 275.961 1133.09 278.003 1133.28 280.022C1131.35 280.34 1131.63 280.977 1133.56 283.522C1133.98 286.481 1134.72 289.366 1135.76 292.114C1131.91 292.75 1125.84 293.069 1125.84 294.978C1125.84 296.887 1133.01 298.478 1134.11 301.342C1135.21 304.206 1130.53 303.251 1125.84 304.206H1125.57C1119.78 298.16 1118.13 301.66 1118.95 307.388C1119.78 313.116 1117.02 309.615 1118.95 310.57H1119.5C1119.87 313.038 1120.61 315.41 1121.71 317.571C1121.71 317.889 1121.98 318.207 1121.98 318.525C1121.98 318.843 1120.33 322.344 1121.43 324.253C1122.54 326.162 1122.81 326.162 1125.29 326.162L1127.5 330.935C1122.57 333.566 1117.22 334.975 1111.79 335.072C1106.28 336.027 1103.8 333.799 1101.87 334.436C1102.69 331.254 1106 330.617 1106.28 327.753C1106.55 324.889 1099.94 325.844 1098.56 323.617C1097.18 321.389 1102.42 319.798 1104.62 316.298C1106.83 312.797 1106.28 312.479 1102.69 312.479C1099.11 312.479 1104.35 308.979 1104.62 305.797C1104.9 302.615 1098.56 308.661 1096.36 306.115C1094.15 303.569 1103.8 300.706 1101.04 298.478C1098.28 296.251 1095.8 299.115 1096.36 295.933C1096.91 292.75 1098.84 292.114 1098.84 289.568C1098.84 287.023 1096.91 288.296 1095.8 288.296C1094.7 288.296 1096.91 285.75 1096.36 283.522C1095.8 281.295 1093.6 283.204 1091.12 280.34C1088.64 277.477 1088.09 276.204 1088.91 273.658C1089.74 271.112 1095.8 271.749 1096.36 270.158C1096.91 268.567 1087.54 271.749 1085.33 267.612C1083.13 263.475 1085.33 265.703 1086.43 262.203C1087.54 258.702 1083.4 261.248 1082.3 258.702C1081.2 256.157 1083.68 256.793 1082.58 253.293C1081.47 249.793 1082.03 245.974 1077.62 245.656C1077.6 246.785 1077.32 247.887 1076.79 248.838C1075.96 250.111 1073.76 250.111 1075.14 252.02C1076.51 253.929 1075.41 254.566 1074.86 256.157C1074.31 257.748 1071.55 257.111 1072.66 259.657C1073.76 262.203 1075.41 265.066 1073.48 265.385C1071.55 265.703 1067.69 266.657 1068.52 268.567C1069.35 270.476 1073.48 270.794 1073.21 272.703H1072.93C1070.69 271.954 1068.37 271.526 1066.04 271.431C1064.11 271.431 1064.39 267.93 1065.21 266.658C1066.04 265.385 1069.62 264.112 1066.87 262.839C1064.11 261.566 1057.5 263.794 1058.88 260.612C1060.25 257.429 1065.49 251.384 1062.46 253.293C1061.95 253.666 1061.38 253.898 1060.78 253.968C1060.18 254.039 1059.57 253.947 1059.01 253.7C1058.45 253.452 1057.94 253.056 1057.54 252.544C1057.13 252.031 1056.84 251.416 1056.67 250.747C1056.4 248.838 1061.36 248.52 1062.46 246.61C1063.56 244.701 1058.6 244.383 1056.4 244.065C1054.19 243.747 1055.84 240.883 1057.22 238.337C1058.6 235.791 1055.57 236.746 1054.74 235.155C1053.92 233.564 1052.81 232.609 1054.19 231.018C1055.57 229.427 1053.36 229.427 1052.26 228.154C1051.59 227.273 1051.2 226.148 1051.16 224.972C1045.65 225.291 1046.75 229.109 1045.37 232.291C1043.99 235.473 1046.75 235.155 1045.37 237.701C1043.99 240.246 1038.76 237.382 1040.41 240.565C1042.07 243.747 1044.82 242.156 1041.79 245.974C1038.76 249.793 1027.18 246.61 1028.29 248.201C1029.39 249.793 1036.55 249.474 1037.38 251.702C1038.21 253.929 1037.66 255.52 1034.63 258.066C1031.59 260.612 1029.39 258.702 1028.56 261.248C1027.74 263.794 1030.77 265.703 1029.11 265.703C1027.46 265.703 1024.98 264.748 1025.26 266.976C1025.53 269.203 1026.63 269.203 1027.46 270.476L1023.88 269.521C1022.22 269.203 1023.6 266.658 1024.7 264.112C1025.81 261.566 1023.6 262.521 1022.78 261.248C1021.95 259.975 1021.4 258.702 1022.5 257.111C1023.6 255.52 1021.95 255.52 1020.85 254.566C1014.78 249.474 1017.54 248.52 1017.54 246.292C1017.54 244.065 1013.13 235.791 1009.27 248.201C1007.62 252.656 1004.86 249.474 1002.66 256.793C1000.45 264.112 998.799 259.021 999.902 262.521C1001 266.021 1001.28 263.794 999.075 267.612C996.87 271.431 990.256 268.249 990.808 269.84C991.359 271.431 994.941 273.022 995.768 274.931C996.595 276.84 995.768 278.749 993.839 281.295C991.91 283.841 989.705 281.931 988.879 284.159C988.052 286.386 990.808 288.296 989.43 288.296C988.052 288.296 986.398 287.659 986.674 289.568C986.949 291.478 988.603 292.432 988.879 295.296C989.154 298.16 983.367 299.433 980.887 301.66C978.406 303.888 986.949 306.433 985.02 308.661C983.091 310.888 977.304 305.479 977.304 308.343C977.304 311.206 982.54 314.707 979.233 314.707C975.926 314.707 975.375 314.707 977.304 317.889C979.233 321.071 981.713 322.662 980.887 324.571C980.171 325.24 979.316 325.679 978.406 325.844C977.029 324.253 977.029 324.889 978.131 322.662C979.233 320.434 976.202 320.116 975.375 318.525C974.548 316.934 970.69 315.343 969.037 311.843C965.454 302.615 961.32 308.661 961.045 310.57C960.769 312.479 963.801 312.798 957.738 316.616C956.911 317.252 955.809 317.252 955.809 317.889C955.809 318.525 954.706 317.252 954.982 315.98C955.258 314.707 961.32 308.024 958.013 308.024C954.706 308.024 946.99 305.479 946.715 303.251C946.439 301.024 950.573 300.706 951.124 298.796C951.675 296.887 948.092 296.251 946.163 295.933C944.234 295.614 945.888 292.432 946.99 289.887C948.092 287.341 945.612 287.977 944.785 286.386C943.959 284.795 943.132 283.841 944.51 281.931C945.888 280.022 943.959 280.022 942.856 278.749C935.691 273.022 938.998 272.385 938.723 269.84C938.447 267.294 934.038 258.066 929.628 271.749C927.975 276.84 924.668 273.34 922.463 281.295C921.637 284.159 917.779 284.159 919.156 287.977C920.534 291.796 920.534 289.568 918.33 293.705C916.125 297.842 908.133 294.341 908.96 295.933C909.787 297.524 913.645 299.433 914.471 301.978C915.298 304.524 914.747 306.115 912.267 308.979C909.787 311.843 907.582 309.615 906.755 312.161C906.715 312.814 906.809 313.468 907.031 314.07C903.999 315.661 902.621 319.162 900.417 318.207C898.212 317.252 900.692 313.434 901.795 310.252C902.897 307.07 906.204 304.524 903.173 305.479C900.141 306.433 900.417 303.888 898.212 303.888C896.008 303.888 898.488 293.387 896.559 292.432C894.63 291.478 896.283 301.342 895.456 302.933C894.63 304.524 890.496 302.933 889.118 302.933C887.74 302.933 894.078 308.343 893.527 309.615C892.976 310.888 884.433 310.888 883.606 308.343C882.78 305.797 881.677 310.57 884.984 313.752C888.291 316.934 890.496 324.889 889.394 325.208C888.291 325.526 878.095 329.663 876.166 326.48C874.237 323.298 878.095 330.617 883.055 332.845C888.016 335.072 883.055 344.936 877.819 346.846L876.166 347.482C876.635 346.813 877.007 346.061 877.268 345.255C877.268 341.754 870.654 348.118 868.449 345.573C866.245 343.027 876.166 339.845 873.134 337.299C870.103 334.754 867.898 337.618 868.449 334.436C869 331.254 870.93 330.299 870.93 327.753C870.93 325.208 869.001 326.48 867.623 326.48C866.245 326.48 869 323.935 868.449 321.389C867.898 318.843 865.418 320.753 862.938 317.889C860.457 315.025 859.631 313.434 860.458 310.888C861.284 308.343 867.623 308.661 868.449 307.07C869.276 305.479 859.08 308.661 856.599 304.524C854.119 300.387 856.599 302.297 857.977 298.478C859.355 294.66 854.67 297.524 853.292 294.978C851.914 292.432 854.67 292.75 853.568 289.25C852.466 285.75 853.292 281.295 848.608 280.659C848.608 282.036 848.221 283.375 847.505 284.477C846.403 285.75 844.474 285.75 845.852 287.659C847.23 289.568 846.127 290.523 845.3 292.114C844.474 293.705 841.994 293.069 843.096 295.933C844.198 298.796 845.852 301.66 843.923 301.978C841.994 302.297 837.86 303.251 838.687 305.161C839.513 307.07 843.923 307.706 843.647 309.934C843.371 312.161 841.167 314.707 838.687 312.479C836.206 310.252 840.891 316.934 841.718 320.753C842.545 324.571 837.033 322.026 834.828 323.298C832.624 324.571 835.38 326.48 836.206 327.753C837.033 329.026 837.033 332.845 835.38 332.845C833.726 332.845 829.041 344.618 824.081 344.3C819.12 343.982 827.663 348.437 830.419 350.346C833.175 352.255 833.175 345.891 837.309 346.209C841.442 346.527 845.576 347.164 842.82 348.755C841.439 349.568 839.948 350.106 838.411 350.346H837.584C833.726 350.664 830.144 359.256 827.939 358.938H825.459C825.167 358.536 825.007 358.029 825.007 357.506C825.007 356.982 825.167 356.475 825.459 356.074C826.01 355.119 828.766 353.528 826.561 352.892C824.356 352.255 818.569 354.164 819.396 351.619C820.223 349.073 824.356 344.3 821.876 345.891C821.475 346.223 821.014 346.447 820.528 346.546C820.041 346.645 819.542 346.618 819.066 346.465C818.591 346.312 818.151 346.039 817.778 345.664C817.406 345.289 817.111 344.823 816.916 344.3C816.365 343.027 820.774 342.073 821.325 340.8C821.876 339.527 818.018 339.209 815.813 339.209C813.609 339.209 815.262 336.663 816.364 334.754C817.467 332.845 814.711 333.481 813.884 332.526C813.057 331.572 811.955 330.617 813.057 329.344C814.16 328.071 812.231 328.071 811.128 327.435C810.581 326.707 810.202 325.832 810.026 324.889C805.341 325.526 806.444 328.39 805.617 330.935C804.79 333.481 807.27 332.845 806.168 334.754C805.066 336.663 800.656 334.754 802.034 337.299C803.412 339.845 806.168 338.254 803.963 341.436C801.759 344.618 791.562 342.709 792.389 343.982C793.216 345.255 799.554 344.3 800.656 345.891C801.759 347.482 800.932 348.755 798.727 350.982C796.523 353.21 794.318 351.937 793.767 353.528C793.216 355.119 795.971 357.028 794.594 357.028C793.216 357.028 791.011 356.392 791.562 358.301C792.113 360.21 794.042 360.21 794.594 362.438C795.145 364.665 792.664 362.756 790.184 364.665L789.633 365.302L784.121 364.665C781.09 363.392 790.735 356.074 791.838 353.528C792.94 350.982 795.971 343.345 791.838 345.891C787.704 348.437 782.468 350.028 780.539 348.437C778.61 346.846 781.09 342.391 783.846 339.209C786.602 336.027 788.255 328.071 784.673 329.981C781.09 331.89 779.437 337.936 776.956 336.345C774.476 334.754 777.232 329.662 778.61 325.526C779.988 321.389 782.744 317.571 779.712 318.525C776.681 319.48 776.956 316.934 774.752 316.616C772.547 316.298 775.027 302.297 773.098 300.706C771.169 299.115 772.547 313.116 771.72 315.343C770.894 317.571 767.035 315.343 765.382 315.343C763.728 315.343 770.342 322.662 770.067 324.571C769.791 326.48 760.697 326.48 759.87 322.662C759.043 318.843 757.666 325.844 761.248 329.981C764.831 334.117 767.035 345.573 765.657 345.891C764.28 346.209 754.083 338.891 752.154 334.436C750.225 329.981 754.083 353.21 759.044 356.392C764.004 359.574 759.044 359.892 753.807 362.438L752.705 363.074C753.256 360.529 751.878 359.892 748.847 363.074C745.816 366.256 743.611 363.074 742.509 360.21C741.406 357.346 743.611 353.528 742.509 348.755C741.915 346.307 740.882 344.03 739.477 342.073C735.619 341.754 734.792 344.3 734.517 348.437C734.241 352.573 730.107 362.12 728.73 359.574C727.352 357.028 725.423 354.164 724.596 359.892V360.847C723.493 360.21 721.84 360.847 719.911 358.938C717.982 357.028 716.88 354.483 717.706 352.255C718.533 350.028 724.871 350.028 725.698 348.437C726.525 346.846 716.328 350.028 713.848 346.209C711.368 342.391 713.848 344.3 715.226 340.482C716.604 336.663 711.919 339.845 710.541 337.299C709.163 334.754 711.919 335.39 710.817 331.89C709.714 328.39 710.541 324.571 705.581 324.253C705.576 325.483 705.291 326.691 704.754 327.753C703.652 329.026 701.447 328.708 702.825 330.617C704.203 332.526 703.376 333.163 702.549 334.754C701.723 336.345 699.242 335.708 700.345 338.254C701.447 340.8 703.1 343.664 701.171 343.982C699.242 344.3 695.109 345.255 695.935 346.846C696.762 348.437 701.171 349.391 700.62 351.301C700.52 351.905 700.294 352.473 699.962 352.955C699.631 353.437 699.203 353.819 698.716 354.069C698.229 354.319 697.696 354.43 697.164 354.391C696.632 354.352 696.116 354.165 695.66 353.846C693.18 351.937 698.14 357.983 698.967 361.483C699.793 364.983 694.282 362.438 692.077 363.711C689.872 364.983 692.628 366.575 693.455 367.847C694.282 369.12 694.282 372.62 692.628 372.62C691.32 372.579 690.016 372.794 688.77 373.257C690.148 370.711 694.006 366.893 691.526 368.166C691.107 368.49 690.629 368.699 690.128 368.777C689.628 368.855 689.119 368.799 688.64 368.615C688.162 368.431 687.726 368.122 687.366 367.714C687.006 367.305 686.733 366.806 686.565 366.256C686.29 364.983 690.699 364.347 691.526 363.074C692.353 361.801 688.219 361.165 686.29 360.847C684.361 360.529 685.739 358.301 687.117 356.392C688.495 354.483 685.739 355.119 684.912 353.846C684.085 352.573 683.259 351.937 684.636 350.664C686.014 349.391 683.81 349.391 682.707 348.437C682.171 347.61 681.881 346.606 681.881 345.573C677.196 345.891 678.022 349.073 676.92 351.619C675.818 354.164 678.298 353.846 676.92 355.755C675.542 357.665 671.133 355.437 672.511 358.301C673.889 361.165 675.542 359.892 674.991 361.165L673.613 362.438C673.338 362.756 673.338 363.074 673.062 363.074C672.786 363.074 661.488 363.074 662.314 364.347C663.141 365.62 668.377 365.302 669.755 366.574C668.137 368.151 666.263 369.341 664.243 370.075C661.488 370.393 658.181 366.574 662.039 361.801C665.897 357.028 669.479 356.074 666.172 350.982C662.866 345.891 664.243 351.619 660.385 353.528C656.527 355.437 662.866 350.664 662.039 343.027C661.212 335.39 659.559 339.209 657.905 342.391C656.252 345.573 651.842 333.163 651.842 327.753C651.842 322.344 650.74 319.162 646.606 319.48C645.209 322.108 644.273 325.027 643.85 328.071C642.472 334.436 644.953 339.527 643.85 343.345C642.748 347.164 640.819 351.937 637.236 347.164C633.654 342.391 632.276 343.664 633.93 349.073C634.389 350.855 635.036 352.565 635.859 354.164C633.385 356.891 630.486 359.051 627.315 360.529C626.764 360.21 626.764 360.529 626.489 361.165C626.213 361.801 623.733 362.438 623.182 362.12C622.631 361.801 624.284 353.21 627.591 350.028C630.898 346.846 629.796 341.754 628.969 344.618C628.142 347.482 619.324 350.664 618.772 349.391C618.221 348.118 625.111 342.073 623.457 342.073C621.804 342.073 618.221 343.982 617.119 342.073C616.017 340.163 617.67 329.981 615.741 330.935C613.812 331.89 614.363 343.027 614.363 343.027C614.363 343.027 612.434 345.573 609.403 344.618C606.371 343.664 609.403 346.846 610.505 350.028C611.607 353.21 614.639 357.028 612.159 358.301C609.678 359.574 608.025 354.483 604.718 353.21C601.411 351.937 602.789 354.483 605.545 357.028C608.3 359.574 610.505 363.074 608.576 364.347C606.647 365.62 601.411 364.029 597.553 362.12C593.695 360.21 595.624 361.801 595.624 362.438C595.624 363.074 597.828 359.574 598.379 356.392C598.931 353.21 591.766 361.801 589.561 359.256C587.356 356.71 597.828 354.801 595.073 352.255C592.317 349.71 589.836 352.255 590.388 349.391C590.939 346.527 593.143 345.891 593.695 343.664C594.246 341.436 591.766 342.073 590.388 342.073C589.01 342.073 592.041 339.845 591.49 337.618C590.939 335.39 588.458 336.981 586.254 334.436C584.049 331.89 583.498 329.981 584.325 327.753C585.152 325.526 591.766 326.48 592.592 324.889C593.419 323.298 583.222 325.844 581.018 321.707C578.813 317.571 581.018 319.798 582.671 316.616C584.325 313.434 579.364 315.661 578.538 313.116C577.711 310.57 579.915 311.206 579.089 308.024C578.262 304.842 579.364 291.159 574.679 290.523C574.546 291.673 574.167 292.766 573.577 293.705C572.475 294.978 570.27 294.66 571.372 296.251C572.475 297.842 571.648 299.115 570.821 300.387C569.995 301.66 567.239 301.024 568.341 303.569C569.443 306.115 570.546 308.979 568.617 308.979C566.688 308.979 562.554 309.615 563.105 311.525C563.656 313.434 568.065 314.07 567.514 315.98C567.405 316.577 567.162 317.13 566.81 317.585C566.458 318.04 566.009 318.381 565.508 318.574C565.006 318.767 564.47 318.805 563.952 318.685C563.434 318.565 562.952 318.29 562.554 317.889C560.074 315.98 564.483 322.026 565.034 325.526C565.585 329.026 560.349 326.162 557.869 327.117C555.389 328.071 558.145 329.981 558.971 331.254C559.798 332.526 559.522 336.027 557.869 335.708C556.216 335.39 551.806 336.981 547.397 336.663V336.027C546.846 334.436 551.255 333.799 552.082 332.526C552.909 331.254 548.775 330.299 546.846 329.981C544.917 329.662 546.57 327.435 547.672 325.208C548.775 322.98 546.295 323.935 545.468 322.344C544.641 320.753 543.814 320.434 545.192 318.843C546.57 317.252 544.365 317.571 543.263 316.616C542.758 315.771 542.471 314.778 542.436 313.752C537.752 314.07 538.578 317.252 537.476 320.116C536.374 322.98 538.854 322.344 537.476 324.571C536.098 326.799 531.964 324.253 533.067 327.117C534.169 329.981 536.925 328.39 534.445 331.89C531.964 335.39 522.043 332.526 522.87 333.799C523.697 335.072 530.035 334.754 530.586 336.663C531.138 338.572 530.862 339.845 528.382 342.073C525.901 344.3 523.697 342.709 523.146 344.618C522.595 346.527 524.799 348.437 523.697 348.437C522.595 348.437 520.114 347.8 520.39 349.71C520.665 351.619 522.595 352.255 523.146 354.801C523.697 357.346 521.217 354.801 518.185 356.71C515.154 358.619 525.35 357.983 523.146 359.892C520.941 361.801 514.052 357.028 514.327 359.574C514.603 362.12 520.39 365.302 516.532 365.302C512.674 365.302 512.122 365.302 514.327 368.166C516.532 371.029 521.768 372.302 520.39 374.211C519.012 376.121 512.398 375.484 512.674 377.712C512.949 379.939 516.256 380.257 517.358 382.803C518.461 385.349 512.398 384.394 507.989 385.985C503.579 387.576 509.091 377.394 511.571 375.803C514.052 374.211 516.256 371.666 514.052 370.393C511.847 369.12 503.579 370.393 504.406 364.983C505.233 359.574 512.122 353.846 513.776 349.71C515.429 345.573 518.736 341.436 515.429 344.618C512.122 347.8 498.068 349.71 496.965 347.8C495.863 345.891 503.028 339.527 506.335 337.618C509.642 335.708 511.02 331.572 505.784 329.026C500.548 326.48 495.312 326.48 500.272 323.298C505.233 320.116 509.091 298.16 507.162 302.297C505.233 306.433 495.312 313.752 493.934 313.116C492.556 312.479 494.761 301.978 498.343 298.16C501.926 294.341 500.548 287.341 499.721 291.159C498.895 294.978 489.8 294.978 489.525 293.069C489.249 291.159 495.863 283.841 494.21 283.841C492.556 283.841 488.698 286.386 487.871 284.159C487.044 281.931 488.147 268.885 486.493 270.158C484.84 271.431 484.84 285.114 484.84 285.114C484.84 285.114 482.911 288.296 479.879 287.023C476.848 285.75 479.604 289.887 480.982 293.705C482.36 297.524 485.115 302.615 482.635 304.206C480.155 305.797 478.501 299.433 474.919 297.842C471.336 296.251 472.99 303.569 475.746 306.752C478.501 309.934 480.982 314.389 479.053 315.98C477.124 317.571 471.612 315.661 467.754 313.116C463.896 310.57 465.825 312.798 465.549 313.434C464.467 312.991 463.577 312.077 463.069 310.888C458.935 300.387 454.25 307.388 453.975 309.615C453.699 311.843 457.006 312.161 450.117 316.298C449.014 317.252 447.361 317.252 448.463 318.525C449.565 319.798 448.739 320.753 448.188 322.026C447.636 323.298 444.881 322.662 445.983 324.889C447.085 327.117 448.739 329.026 446.81 329.344C444.881 329.662 441.022 330.299 441.849 331.572C442.676 332.845 446.81 333.481 446.534 335.072L445.707 335.708L444.605 336.663L441.574 337.618H441.022C439.093 336.345 434.133 338.572 434.96 335.39C435.786 332.208 440.747 328.39 437.715 328.39C434.684 328.39 427.794 325.844 427.519 324.253C427.243 322.662 431.101 321.707 431.653 320.116C432.204 318.525 428.897 317.889 427.243 317.571C425.59 317.252 426.692 314.389 427.794 312.161C428.897 309.934 426.692 310.57 425.865 308.979C425.039 307.388 424.488 306.752 425.59 304.842C426.692 302.933 425.314 303.251 424.212 302.297C417.874 297.205 420.905 296.569 420.629 294.341C420.354 292.114 416.22 274.294 412.362 286.386C410.984 291.159 407.953 287.659 406.024 294.978C405.197 297.205 402.717 297.524 402.992 299.751C403.268 301.978 396.929 301.024 395 298.478C393.071 295.933 393.071 297.205 394.174 294.66C395.276 292.114 392.244 292.114 391.418 290.205C390.591 288.296 386.733 287.341 385.079 283.841C381.497 274.294 377.363 280.659 377.087 282.25C376.812 283.841 379.843 284.795 373.78 288.614L371.851 289.568L370.749 288.614C365.513 285.113 357.521 287.341 358.624 283.522C359.726 279.704 363.86 278.749 364.135 275.249C364.411 271.749 356.143 272.703 354.765 270.158C353.387 267.612 359.175 265.385 361.93 260.93C364.686 256.475 364.135 256.157 359.45 256.157C354.765 256.157 361.93 252.02 361.93 247.883C361.93 243.747 354.49 251.384 351.734 248.201C348.978 245.019 360.828 241.519 357.521 238.655C354.214 235.791 351.183 239.292 351.734 235.473C352.285 231.655 354.765 230.7 355.041 227.836C355.317 224.972 352.561 225.927 350.907 225.927C349.254 225.927 352.561 223.063 351.734 219.881C350.907 216.699 348.151 219.563 345.396 216.063C342.64 212.562 341.537 210.653 342.64 207.789C343.742 204.925 350.907 205.244 352.01 203.334C353.112 201.425 340.986 205.244 337.955 200.152C334.923 195.061 337.955 197.925 339.608 193.152C341.262 188.379 335.75 192.197 334.372 189.333C332.994 186.469 336.026 186.788 334.648 182.333C333.27 177.878 334.097 173.105 328.585 172.786C328.571 174.259 328.188 175.696 327.483 176.923C326.38 178.514 323.625 178.196 325.278 180.423C326.932 182.651 325.554 183.924 324.727 186.151C323.9 188.379 320.869 187.106 322.247 190.288C323.625 193.47 325.554 196.97 323.349 197.607C321.144 198.243 316.184 198.879 317.011 201.107C317.837 203.334 323.073 204.289 322.798 206.516C322.522 208.744 320.042 212.244 317.011 209.698C313.979 207.153 319.491 215.108 320.869 219.245C322.247 223.381 315.357 220.836 312.601 222.109C309.846 223.381 313.153 225.927 313.979 227.518C314.806 229.109 315.357 233.564 313.153 233.246C310.948 232.928 305.712 236.11 300.2 235.791C294.689 235.473 304.334 240.246 307.365 242.792C310.397 245.338 310.672 248.838 315.357 249.156C320.042 249.474 325.003 250.111 321.971 252.02C318.94 253.929 311.223 254.566 306.814 253.611C302.405 252.656 298.547 251.384 298.271 252.975C297.996 254.566 302.129 259.975 306.814 260.93C311.499 261.884 313.979 262.203 313.428 265.385C312.877 268.567 307.09 267.93 304.885 268.567C302.68 269.203 305.161 271.749 306.539 273.976C307.916 276.204 301.303 275.249 300.2 276.522C299.098 277.795 302.405 282.25 307.365 283.522C309.746 283.841 312.15 283.841 314.53 283.522C313.979 284.795 313.979 286.068 313.428 287.341V287.977L302.956 290.205C300.318 291.177 298.069 293.209 296.618 295.933C294.689 298.796 294.413 304.842 290.555 305.797C286.697 306.752 286.146 309.615 290.555 310.252C294.607 310.789 298.709 310.018 302.405 308.024C302.865 307.737 303.371 307.56 303.892 307.505C304.413 307.451 304.939 307.519 305.436 307.706H304.885C302.68 309.934 300.751 308.343 299.925 310.252C299.098 312.161 301.854 313.752 300.476 313.752C299.098 313.752 297.169 313.116 297.444 314.707C297.72 316.298 299.649 317.252 299.925 319.48C300.2 321.707 298.271 319.798 295.515 321.389C292.759 322.98 302.129 325.526 299.925 327.435C297.72 329.344 291.657 324.571 291.933 327.117C292.208 329.662 297.444 332.208 293.862 332.208C290.279 332.208 289.728 332.208 291.933 335.072C292.576 336.053 293.431 336.822 294.413 337.299C291.933 338.89 291.657 340.8 290.555 342.709C289.496 345.315 288.843 348.115 288.626 350.982L285.043 352.255C280.91 354.164 280.634 354.801 282.563 355.755H284.492C282.835 357.521 280.683 358.538 278.429 358.619C272.366 358.938 269.06 361.483 267.957 357.665L268.784 357.028C273.193 353.528 275.122 351.937 273.193 349.073C271.264 346.209 271.264 346.209 269.611 345.891C267.957 345.573 273.193 339.527 275.122 335.708C277.051 331.89 280.083 318.525 271.264 325.844C268.896 327.845 266.41 329.652 263.823 331.254H263.272C260.667 329.938 258.175 328.34 255.832 326.48L257.485 323.935C261.343 323.935 267.682 327.117 271.264 324.571C274.847 322.026 280.358 320.116 278.154 316.616C275.949 313.116 273.469 317.571 266.579 316.298L261.894 315.661C264.65 308.979 264.65 303.251 261.619 299.433C258.587 295.614 258.863 297.842 258.036 299.115C257.21 300.387 258.587 294.341 255.005 294.341C251.422 294.341 248.115 295.933 245.911 294.341C243.706 292.75 245.635 287.977 243.155 288.932C240.675 289.887 243.155 284.477 247.84 284.159C252.525 283.841 256.383 285.432 259.139 283.841C261.894 282.25 261.619 281.295 256.107 277.795C252.867 276.204 249.422 275.236 245.911 274.931C247.564 273.34 248.942 271.749 248.942 269.84V267.612C250.596 266.658 251.973 265.703 251.973 264.112C251.973 262.521 240.95 261.566 239.572 258.702C238.194 255.838 241.501 253.929 244.257 249.156C247.013 244.383 246.462 244.383 241.777 244.383C237.092 244.383 243.982 239.928 244.257 235.791C244.533 231.655 236.541 239.61 233.785 236.428C231.029 233.246 243.155 229.427 239.572 226.245C235.99 223.063 227.447 221.472 227.998 217.335C228.549 213.199 231.029 212.562 231.305 209.38C231.58 206.198 228.825 207.471 227.171 207.471C225.518 207.471 228.825 204.607 227.998 201.425C227.171 198.243 224.415 201.107 221.384 197.607C218.352 194.106 217.526 191.879 218.628 189.015C219.73 186.151 224.415 183.605 225.242 181.378C226.069 179.151 216.975 183.605 213.668 178.514C210.361 173.423 210.912 175.968 212.565 171.195C214.219 166.422 209.534 166.74 208.707 163.24C205.676 153.058 201.818 157.512 199.613 151.148C194.101 133.965 188.314 145.421 188.039 148.603C187.763 151.785 191.897 152.739 183.078 160.058C181.425 161.331 179.22 161.331 180.873 163.558C182.527 165.786 181.425 167.059 180.322 169.286C179.22 171.514 176.464 170.559 177.842 173.741C179.22 176.923 181.149 180.742 178.944 181.06C176.74 181.378 171.504 182.651 172.33 184.878C173.157 187.106 178.669 188.06 178.393 190.606C178.118 193.152 169.023 196.652 163.787 196.652C158.551 196.652 166.543 202.061 167.645 206.516C168.748 210.971 162.134 207.789 159.102 209.38C156.071 210.971 159.929 213.199 160.756 214.79C161.583 216.381 162.134 221.154 159.929 220.836C157.725 220.517 152.213 223.7 146.426 223.381C140.639 223.063 150.559 228.154 153.866 230.382C157.173 232.609 157.173 236.746 162.134 237.064C167.094 237.382 172.33 238.019 169.023 240.246C164.009 242.444 158.546 242.887 153.315 241.519C148.906 240.564 144.772 239.292 144.497 241.201C144.221 243.11 148.63 248.52 153.315 249.474C158 250.429 160.756 250.429 160.205 253.929C159.654 257.43 153.866 256.475 151.386 257.111C148.906 257.748 151.662 260.612 153.04 262.521C154.418 264.43 150.835 264.112 148.63 264.748C146.426 265.385 150.559 259.657 148.079 261.884C143.123 264.763 137.832 266.799 132.371 267.93C133.749 264.748 133.198 263.157 129.891 262.839H129.34C131.706 260.929 134.193 259.227 136.78 257.748C140.914 255.52 142.568 251.702 135.954 248.838C129.34 245.974 123.277 246.292 129.34 243.11C135.402 239.928 140.087 216.699 137.883 220.836C135.678 224.972 123.277 232.928 121.623 232.291C119.97 231.655 122.726 220.836 126.859 216.699C130.993 212.562 129.615 205.562 128.513 209.38C127.411 213.199 116.387 213.199 116.112 211.289C115.836 209.38 123.828 201.743 121.899 201.743C119.97 201.743 115.009 204.607 113.907 202.061C112.805 199.516 114.458 186.151 112.254 187.424C110.049 188.697 110.325 203.016 110.325 203.016C110.325 203.016 108.12 206.516 104.262 205.244C100.404 203.971 103.986 208.107 105.64 212.244C107.293 216.381 108.947 218.926 108.671 221.154C108.395 223.381 106.466 220.836 104.537 222.109C102.716 219.805 100.573 217.869 98.1989 216.381C93.5141 214.79 95.7187 222.427 99.0257 225.609L99.8524 226.563L92.4117 233.882L89.1048 232.291C85.5222 230.382 86.6245 234.2 88.0024 237.382C85.2826 239.616 81.9532 240.633 78.6326 240.246C73.9478 238.973 77.5303 234.519 85.2466 219.563C92.9629 204.607 94.892 189.97 89.3803 182.014C83.8687 174.059 84.4199 189.333 78.9082 189.333C73.3966 189.333 65.1292 187.424 68.7117 177.878C72.2943 168.331 70.0896 162.922 65.9559 164.831C61.8222 166.74 48.5943 165.468 54.1059 157.512C59.6175 149.557 73.3966 143.193 73.3966 134.283C73.3966 125.374 72.8454 123.464 67.3338 130.147C61.8222 136.829 55.4838 141.92 51.3501 142.557C47.2163 143.193 41.7047 137.147 48.0431 128.874C54.3815 120.6 60.4443 119.328 54.9326 111.054C49.421 102.781 51.3501 112.009 45.2873 115.191C39.2245 118.373 49.421 110.418 48.0431 97.6895C46.6652 84.9613 43.9094 91.6436 41.1535 97.0531C38.3977 102.463 31.2326 81.1428 30.957 72.5512C30.6815 63.9596 29.3036 58.2319 22.414 58.8683C20.0448 63.2351 18.4522 68.1028 17.7291 73.1876C15.8 83.3702 19.6582 92.28 17.7291 98.326C15.8 104.372 13.0442 112.645 6.70586 104.372C0.367485 96.0985 -1.56158 98.9624 1.19423 107.872C3.95005 116.782 14.4221 130.147 4.77679 132.374C-4.86856 134.602 -5.6953 128.874 -9.82903 126.965C-13.9628 125.055 -8.45112 150.512 -2.93949 158.785C2.57214 167.059 -7.89996 169.604 -11.2069 169.604C-15.7175 169.906 -20.1564 168.198 -23.6081 164.831C-26.9151 160.695 -21.4035 185.833 -12.5848 198.879C-3.76624 211.926 -3.21507 208.107 -11.2069 208.107C-15.428 207.854 -19.5161 206.318 -23.0569 203.652C-22.5786 203.163 -22.2824 202.479 -22.2302 201.743C-22.2302 199.516 -26.6395 199.198 -30.2221 198.243C-31.7154 197.026 -33.1001 195.64 -34.3558 194.106C-32.4267 192.197 -27.7418 189.97 -24.986 186.469C-22.2302 182.969 -22.2302 182.014 -28.5686 182.014C-34.907 182.014 -25.2616 177.241 -24.986 173.105C-24.7104 168.968 -35.1825 176.923 -38.7651 173.741C-42.3477 170.559 -26.6395 166.422 -31.3244 163.558C-36.0093 160.695 -39.5918 164.195 -38.7651 160.058C-37.9383 155.921 -34.907 154.967 -34.6314 152.103C-34.3558 149.239 -37.6628 150.194 -39.8674 150.194C-42.0721 150.194 -37.6628 147.012 -38.7651 143.83C-39.8674 140.647 -43.45 143.511 -47.5837 140.011C-51.7174 136.511 -52.5442 134.283 -51.1663 131.101C-49.7884 127.919 -39.8674 128.556 -38.4895 126.328C-37.1116 124.101 -53.3709 128.556 -57.2291 123.464C-61.0872 118.373 -57.2291 120.919 -55.3 116.146C-53.3709 111.372 -60.536 115.191 -62.1895 111.691C-63.843 108.19 -59.9849 109.145 -61.9139 104.69C-63.843 100.235 -62.4651 94.8257 -69.9058 94.5075C-69.9265 96.1861 -70.5208 97.7874 -71.5593 98.9624C-72.9372 100.553 -76.5198 100.235 -74.3151 102.781C-72.1105 105.327 -73.764 106.281 -74.8663 108.509C-75.8163 109.265 -76.8323 109.905 -77.8977 110.418C-78.7244 110.736 -79 111.372 -78.1733 112.963C-77.3465 114.555 -78.1733 113.282 -77.8977 113.6C-77.6221 113.918 -74.0395 119.964 -77.0709 120.6H-79V603.002H1483.27V34.3664H1481.62C1478.59 33.73 1480.79 29.2751 1482.44 25.1384C1484.1 21.0017 1482.72 24.8201 1483 24.5019C1483.27 24.1837 1483.27 21.3199 1482.44 21.0017Z" fill="#13151D"/>
</svg>
