<svg width="86" height="684" viewBox="0 0 86 684" fill="none" xmlns="http://www.w3.org/2000/svg">
<g opacity="0.5">
<path d="M50.4168 14.4206V16.0647H42.0594V14.6518L46.1182 10.2248C46.5635 9.72245 46.9146 9.2886 47.1714 8.92325C47.4283 8.5579 47.6082 8.22965 47.7109 7.93851C47.8194 7.64167 47.8736 7.35338 47.8736 7.07366C47.8736 6.67977 47.7994 6.3344 47.651 6.03755C47.5083 5.735 47.297 5.49809 47.0173 5.32683C46.7376 5.14986 46.3979 5.06138 45.9983 5.06138C45.5359 5.06138 45.1477 5.16128 44.8338 5.36108C44.5198 5.56088 44.2829 5.83775 44.1231 6.19168C43.9632 6.53991 43.8833 6.93951 43.8833 7.39049H41.8196C41.8196 6.6655 41.9852 6.0033 42.3163 5.4039C42.6474 4.79879 43.1269 4.31926 43.7549 3.96533C44.3828 3.60569 45.1392 3.42587 46.024 3.42587C46.8575 3.42587 47.5653 3.56573 48.1476 3.84545C48.7299 4.12517 49.1723 4.52192 49.4749 5.03569C49.7831 5.54947 49.9373 6.15743 49.9373 6.85959C49.9373 7.24777 49.8745 7.6331 49.7489 8.01558C49.6233 8.39805 49.4435 8.78053 49.2094 9.16301C48.9811 9.53977 48.7099 9.9194 48.3959 10.3019C48.082 10.6786 47.7366 11.0611 47.3598 11.4493L44.6625 14.4206H50.4168ZM52.2321 15.0372C52.2321 14.7175 52.3406 14.4492 52.5575 14.2322C52.7744 14.0096 53.0684 13.8983 53.4395 13.8983C53.8162 13.8983 54.1102 14.0096 54.3215 14.2322C54.5384 14.4492 54.6469 14.7175 54.6469 15.0372C54.6469 15.3568 54.5384 15.6251 54.3215 15.8421C54.1102 16.059 53.8162 16.1675 53.4395 16.1675C53.0684 16.1675 52.7744 16.059 52.5575 15.8421C52.3406 15.6251 52.2321 15.3568 52.2321 15.0372ZM65.1878 3.59713V4.72743L60.2042 16.0647H58.0292L63.0042 5.2412H56.5478V3.59713H65.1878ZM75.0008 8.78624V10.8242C75.0008 11.8004 74.9038 12.6338 74.7097 13.3246C74.5213 14.0096 74.2473 14.5662 73.8877 14.9943C73.528 15.4225 73.097 15.7365 72.5947 15.9363C72.098 16.1361 71.5414 16.236 70.9249 16.236C70.434 16.236 69.9773 16.1732 69.5548 16.0476C69.1381 15.922 68.7613 15.725 68.4245 15.4567C68.0877 15.1884 67.7995 14.8431 67.5597 14.4206C67.3256 13.9925 67.143 13.4816 67.0117 12.8879C66.8861 12.2942 66.8233 11.6063 66.8233 10.8242V8.78624C66.8233 7.80436 66.9203 6.97661 67.1144 6.303C67.3085 5.62368 67.5854 5.0728 67.945 4.65036C68.3047 4.22222 68.7328 3.9111 69.2295 3.71701C69.7318 3.52292 70.2913 3.42587 70.9078 3.42587C71.4044 3.42587 71.8611 3.48866 72.2778 3.61425C72.7003 3.73413 73.077 3.92537 73.4081 4.18797C73.745 4.45056 74.0304 4.79308 74.2644 5.21551C74.5042 5.63224 74.6869 6.13745 74.8125 6.73115C74.938 7.31913 75.0008 8.00416 75.0008 8.78624ZM72.9372 11.1153V8.47798C72.9372 7.98133 72.9086 7.54462 72.8516 7.16785C72.7945 6.78538 72.7088 6.46284 72.5947 6.20025C72.4862 5.93194 72.3492 5.71502 72.1837 5.54947C72.0181 5.37821 71.8297 5.25547 71.6185 5.18126C71.4073 5.10134 71.1704 5.06138 70.9078 5.06138C70.5881 5.06138 70.3027 5.12418 70.0515 5.24976C69.8003 5.36965 69.5891 5.56374 69.4178 5.83204C69.2466 6.10035 69.1153 6.45428 69.0239 6.89384C68.9383 7.32769 68.8955 7.85574 68.8955 8.47798V11.1153C68.8955 11.6177 68.924 12.0601 68.9811 12.4426C69.0382 12.8251 69.1238 13.1533 69.238 13.4273C69.3522 13.6956 69.4892 13.9183 69.649 14.0952C69.8146 14.2665 70.003 14.3921 70.2142 14.472C70.4311 14.5519 70.668 14.5919 70.9249 14.5919C71.2503 14.5919 71.5386 14.5291 71.7898 14.4035C72.0409 14.2779 72.2522 14.0781 72.4234 13.8041C72.5947 13.5244 72.7231 13.1619 72.8087 12.7166C72.8944 12.2713 72.9372 11.7376 72.9372 11.1153ZM78.5373 6.79965L80.3013 9.87373L82.0995 6.79965H84.3686L81.56 11.3465L84.48 16.0647H82.2108L80.327 12.8622L78.4431 16.0647H76.1654L79.0768 11.3465L76.2767 6.79965H78.5373Z" fill="#62687D"/>
<rect x="7.24036" y="8.03589" width="22.3196" height="3.18851" fill="#53596D"/>
<rect x="16.806" y="20.79" width="12.754" height="3.18851" fill="#495067"/>
<rect x="16.806" y="33.5439" width="12.754" height="3.18851" fill="#495067"/>
<rect x="16.806" y="46.2981" width="12.754" height="3.18851" fill="#495067"/>
<rect x="16.806" y="59.052" width="12.754" height="3.18851" fill="#495067"/>
<rect x="16.806" y="71.8062" width="12.754" height="3.18851" fill="#495067"/>
<rect x="16.806" y="84.5603" width="12.754" height="3.18851" fill="#495067"/>
<rect x="16.806" y="97.3142" width="12.754" height="3.18851" fill="#495067"/>
<rect x="16.806" y="110.068" width="12.754" height="3.18851" fill="#495067"/>
</g>
<g opacity="0.5">
<path d="M50.4168 242.399V244.043H42.0594V242.63L46.1182 238.203C46.5635 237.701 46.9146 237.267 47.1714 236.902C47.4283 236.536 47.6082 236.208 47.7109 235.917C47.8194 235.62 47.8736 235.332 47.8736 235.052C47.8736 234.658 47.7994 234.313 47.651 234.016C47.5083 233.714 47.297 233.477 47.0173 233.305C46.7376 233.128 46.3979 233.04 45.9983 233.04C45.5359 233.04 45.1477 233.14 44.8338 233.34C44.5198 233.539 44.2829 233.816 44.1231 234.17C43.9632 234.518 43.8833 234.918 43.8833 235.369H41.8196C41.8196 234.644 41.9852 233.982 42.3163 233.382C42.6474 232.777 43.1269 232.298 43.7549 231.944C44.3828 231.584 45.1392 231.404 46.024 231.404C46.8575 231.404 47.5653 231.544 48.1476 231.824C48.7299 232.104 49.1723 232.5 49.4749 233.014C49.7831 233.528 49.9373 234.136 49.9373 234.838C49.9373 235.226 49.8745 235.612 49.7489 235.994C49.6233 236.377 49.4435 236.759 49.2094 237.142C48.9811 237.518 48.7099 237.898 48.3959 238.28C48.082 238.657 47.7366 239.04 47.3598 239.428L44.6625 242.399H50.4168ZM52.2321 243.016C52.2321 242.696 52.3406 242.428 52.5575 242.211C52.7744 241.988 53.0684 241.877 53.4395 241.877C53.8162 241.877 54.1102 241.988 54.3215 242.211C54.5384 242.428 54.6469 242.696 54.6469 243.016C54.6469 243.335 54.5384 243.604 54.3215 243.821C54.1102 244.038 53.8162 244.146 53.4395 244.146C53.0684 244.146 52.7744 244.038 52.5575 243.821C52.3406 243.604 52.2321 243.335 52.2321 243.016ZM65.1878 231.576V232.706L60.2042 244.043H58.0292L63.0042 233.22H56.5478V231.576H65.1878ZM75.0008 236.765V238.803C75.0008 239.779 74.9038 240.612 74.7097 241.303C74.5213 241.988 74.2473 242.545 73.8877 242.973C73.528 243.401 73.097 243.715 72.5947 243.915C72.098 244.115 71.5414 244.214 70.9249 244.214C70.434 244.214 69.9773 244.152 69.5548 244.026C69.1381 243.9 68.7613 243.704 68.4245 243.435C68.0877 243.167 67.7995 242.822 67.5597 242.399C67.3256 241.971 67.143 241.46 67.0117 240.866C66.8861 240.273 66.8233 239.585 66.8233 238.803V236.765C66.8233 235.783 66.9203 234.955 67.1144 234.282C67.3085 233.602 67.5854 233.051 67.945 232.629C68.3047 232.201 68.7328 231.89 69.2295 231.696C69.7318 231.501 70.2913 231.404 70.9078 231.404C71.4044 231.404 71.8611 231.467 72.2778 231.593C72.7003 231.713 73.077 231.904 73.4081 232.166C73.745 232.429 74.0304 232.772 74.2644 233.194C74.5042 233.611 74.6869 234.116 74.8125 234.71C74.938 235.298 75.0008 235.983 75.0008 236.765ZM72.9372 239.094V236.456C72.9372 235.96 72.9086 235.523 72.8516 235.146C72.7945 234.764 72.7088 234.441 72.5947 234.179C72.4862 233.91 72.3492 233.694 72.1837 233.528C72.0181 233.357 71.8297 233.234 71.6185 233.16C71.4073 233.08 71.1704 233.04 70.9078 233.04C70.5881 233.04 70.3027 233.103 70.0515 233.228C69.8003 233.348 69.5891 233.542 69.4178 233.811C69.2466 234.079 69.1153 234.433 69.0239 234.872C68.9383 235.306 68.8955 235.834 68.8955 236.456V239.094C68.8955 239.596 68.924 240.039 68.9811 240.421C69.0382 240.804 69.1238 241.132 69.238 241.406C69.3522 241.674 69.4892 241.897 69.649 242.074C69.8146 242.245 70.003 242.371 70.2142 242.451C70.4311 242.53 70.668 242.57 70.9249 242.57C71.2503 242.57 71.5386 242.508 71.7898 242.382C72.0409 242.256 72.2522 242.057 72.4234 241.783C72.5947 241.503 72.7231 241.14 72.8087 240.695C72.8944 240.25 72.9372 239.716 72.9372 239.094ZM78.5373 234.778L80.3013 237.852L82.0995 234.778H84.3686L81.56 239.325L84.48 244.043H82.2108L80.327 240.841L78.4431 244.043H76.1654L79.0768 239.325L76.2767 234.778H78.5373Z" fill="#62687D"/>
<rect x="7.24036" y="236.014" width="22.3196" height="3.18851" fill="#53596D"/>
<rect x="16.806" y="248.769" width="12.754" height="3.18851" fill="#495067"/>
<rect x="16.806" y="261.523" width="12.754" height="3.18851" fill="#495067"/>
<rect x="16.806" y="274.277" width="12.754" height="3.18851" fill="#495067"/>
<rect x="16.806" y="287.031" width="12.754" height="3.18851" fill="#495067"/>
<rect x="16.806" y="299.785" width="12.754" height="3.18851" fill="#495067"/>
<rect x="16.806" y="312.539" width="12.754" height="3.18851" fill="#495067"/>
<rect x="16.806" y="325.293" width="12.754" height="3.18851" fill="#495067"/>
<rect x="16.806" y="338.047" width="12.754" height="3.18851" fill="#495067"/>
</g>
<g opacity="0.5">
<path d="M50.4168 470.377V472.021H42.0594V470.609L46.1182 466.182C46.5635 465.679 46.9146 465.245 47.1714 464.88C47.4283 464.515 47.6082 464.186 47.7109 463.895C47.8194 463.598 47.8736 463.31 47.8736 463.03C47.8736 462.637 47.7994 462.291 47.651 461.994C47.5083 461.692 47.297 461.455 47.0173 461.284C46.7376 461.107 46.3979 461.018 45.9983 461.018C45.5359 461.018 45.1477 461.118 44.8338 461.318C44.5198 461.518 44.2829 461.795 44.1231 462.148C43.9632 462.497 43.8833 462.896 43.8833 463.347H41.8196C41.8196 462.622 41.9852 461.96 42.3163 461.361C42.6474 460.756 43.1269 460.276 43.7549 459.922C44.3828 459.562 45.1392 459.383 46.024 459.383C46.8575 459.383 47.5653 459.523 48.1476 459.802C48.7299 460.082 49.1723 460.479 49.4749 460.992C49.7831 461.506 49.9373 462.114 49.9373 462.816C49.9373 463.205 49.8745 463.59 49.7489 463.972C49.6233 464.355 49.4435 464.737 49.2094 465.12C48.9811 465.497 48.7099 465.876 48.3959 466.259C48.082 466.635 47.7366 467.018 47.3598 467.406L44.6625 470.377H50.4168ZM52.2321 470.994C52.2321 470.674 52.3406 470.406 52.5575 470.189C52.7744 469.966 53.0684 469.855 53.4395 469.855C53.8162 469.855 54.1102 469.966 54.3215 470.189C54.5384 470.406 54.6469 470.674 54.6469 470.994C54.6469 471.314 54.5384 471.582 54.3215 471.799C54.1102 472.016 53.8162 472.124 53.4395 472.124C53.0684 472.124 52.7744 472.016 52.5575 471.799C52.3406 471.582 52.2321 471.314 52.2321 470.994ZM65.1878 459.554V460.684L60.2042 472.021H58.0292L63.0042 461.198H56.5478V459.554H65.1878ZM75.0008 464.743V466.781C75.0008 467.757 74.9038 468.591 74.7097 469.281C74.5213 469.966 74.2473 470.523 73.8877 470.951C73.528 471.379 73.097 471.693 72.5947 471.893C72.098 472.093 71.5414 472.193 70.9249 472.193C70.434 472.193 69.9773 472.13 69.5548 472.004C69.1381 471.879 68.7613 471.682 68.4245 471.414C68.0877 471.145 67.7995 470.8 67.5597 470.377C67.3256 469.949 67.143 469.438 67.0117 468.845C66.8861 468.251 66.8233 467.563 66.8233 466.781V464.743C66.8233 463.761 66.9203 462.933 67.1144 462.26C67.3085 461.58 67.5854 461.03 67.945 460.607C68.3047 460.179 68.7328 459.868 69.2295 459.674C69.7318 459.48 70.2913 459.383 70.9078 459.383C71.4044 459.383 71.8611 459.445 72.2778 459.571C72.7003 459.691 73.077 459.882 73.4081 460.145C73.745 460.407 74.0304 460.75 74.2644 461.172C74.5042 461.589 74.6869 462.094 74.8125 462.688C74.938 463.276 75.0008 463.961 75.0008 464.743ZM72.9372 467.072V464.435C72.9372 463.938 72.9086 463.501 72.8516 463.125C72.7945 462.742 72.7088 462.42 72.5947 462.157C72.4862 461.889 72.3492 461.672 72.1837 461.506C72.0181 461.335 71.8297 461.212 71.6185 461.138C71.4073 461.058 71.1704 461.018 70.9078 461.018C70.5881 461.018 70.3027 461.081 70.0515 461.207C69.8003 461.326 69.5891 461.521 69.4178 461.789C69.2466 462.057 69.1153 462.411 69.0239 462.851C68.9383 463.284 68.8955 463.813 68.8955 464.435V467.072C68.8955 467.574 68.924 468.017 68.9811 468.399C69.0382 468.782 69.1238 469.11 69.238 469.384C69.3522 469.652 69.4892 469.875 69.649 470.052C69.8146 470.223 70.003 470.349 70.2142 470.429C70.4311 470.509 70.668 470.549 70.9249 470.549C71.2503 470.549 71.5386 470.486 71.7898 470.36C72.0409 470.235 72.2522 470.035 72.4234 469.761C72.5947 469.481 72.7231 469.119 72.8087 468.673C72.8944 468.228 72.9372 467.694 72.9372 467.072ZM78.5373 462.756L80.3013 465.831L82.0995 462.756H84.3686L81.56 467.303L84.48 472.021H82.2108L80.327 468.819L78.4431 472.021H76.1654L79.0768 467.303L76.2767 462.756H78.5373Z" fill="#62687D"/>
<rect x="7.24036" y="463.993" width="22.3196" height="3.18851" fill="#53596D"/>
<rect x="16.806" y="476.747" width="12.754" height="3.18851" fill="#495067"/>
<rect x="16.806" y="489.501" width="12.754" height="3.18851" fill="#495067"/>
<rect x="16.806" y="502.255" width="12.754" height="3.18851" fill="#495067"/>
<rect x="16.806" y="515.009" width="12.754" height="3.18851" fill="#495067"/>
<rect x="16.806" y="527.763" width="12.754" height="3.18851" fill="#495067"/>
<rect x="16.806" y="540.517" width="12.754" height="3.18851" fill="#495067"/>
<rect x="16.806" y="553.271" width="12.754" height="3.18851" fill="#495067"/>
<rect x="16.806" y="566.025" width="12.754" height="3.18851" fill="#495067"/>
</g>
<g opacity="0.7">
<path d="M48.1097 129.463V131.257H38.9926V129.716L43.4204 124.886C43.9061 124.338 44.2891 123.865 44.5694 123.466C44.8496 123.068 45.0458 122.71 45.1579 122.392C45.2762 122.068 45.3354 121.754 45.3354 121.448C45.3354 121.019 45.2544 120.642 45.0925 120.318C44.9368 119.988 44.7064 119.73 44.4012 119.543C44.0961 119.35 43.7255 119.253 43.2896 119.253C42.7852 119.253 42.3617 119.362 42.0192 119.58C41.6767 119.798 41.4182 120.1 41.2439 120.486C41.0695 120.866 40.9823 121.302 40.9823 121.794H38.731C38.731 121.003 38.9116 120.281 39.2728 119.627C39.634 118.967 40.1571 118.444 40.8422 118.058C41.5272 117.665 42.3524 117.469 43.3176 117.469C44.2269 117.469 44.9991 117.622 45.6343 117.927C46.2695 118.232 46.7521 118.665 47.0822 119.225C47.4185 119.786 47.5866 120.449 47.5866 121.215C47.5866 121.638 47.5181 122.059 47.3811 122.476C47.2441 122.893 47.0479 123.31 46.7926 123.728C46.5435 124.139 46.2477 124.553 45.9052 124.97C45.5627 125.381 45.1859 125.798 44.7749 126.222L41.8324 129.463H48.1097ZM50.0901 130.136C50.0901 129.787 50.2084 129.494 50.4451 129.258C50.6817 129.015 51.0024 128.893 51.4072 128.893C51.8182 128.893 52.139 129.015 52.3694 129.258C52.606 129.494 52.7244 129.787 52.7244 130.136C52.7244 130.485 52.606 130.777 52.3694 131.014C52.139 131.251 51.8182 131.369 51.4072 131.369C51.0024 131.369 50.6817 131.251 50.4451 131.014C50.2084 130.777 50.0901 130.485 50.0901 130.136ZM61.991 117.572H62.2712V119.412H62.1124C61.309 119.412 60.6147 119.537 60.0293 119.786C59.4501 120.035 58.9737 120.377 58.6001 120.813C58.2264 121.249 57.9462 121.76 57.7593 122.345C57.5787 122.924 57.4884 123.541 57.4884 124.195V126.334C57.4884 126.876 57.5476 127.355 57.6659 127.773C57.7842 128.184 57.9493 128.529 58.161 128.809C58.379 129.083 58.6281 129.292 58.9083 129.435C59.1886 129.579 59.4906 129.65 59.8144 129.65C60.1507 129.65 60.4559 129.582 60.7299 129.445C61.0039 129.301 61.2374 129.105 61.4305 128.856C61.6235 128.607 61.7699 128.311 61.8695 127.969C61.9692 127.626 62.019 127.253 62.019 126.848C62.019 126.462 61.9692 126.1 61.8695 125.764C61.7761 125.422 61.636 125.123 61.4492 124.867C61.2623 124.606 61.0288 124.403 60.7486 124.26C60.4745 124.111 60.1569 124.036 59.7957 124.036C59.3474 124.036 58.9395 124.142 58.572 124.354C58.2108 124.565 57.9181 124.842 57.6939 125.185C57.476 125.521 57.3577 125.879 57.339 126.259L56.4796 125.979C56.5294 125.4 56.6571 124.88 56.8626 124.419C57.0743 123.958 57.3514 123.566 57.6939 123.242C58.0365 122.918 58.4319 122.672 58.8803 122.504C59.3349 122.33 59.8331 122.242 60.3749 122.242C61.035 122.242 61.608 122.367 62.0937 122.616C62.5795 122.865 62.9811 123.205 63.2987 123.634C63.6226 124.058 63.8623 124.544 64.018 125.092C64.1799 125.633 64.2609 126.2 64.2609 126.792C64.2609 127.446 64.1613 128.056 63.962 128.623C63.7627 129.183 63.47 129.675 63.0839 130.099C62.704 130.522 62.2401 130.852 61.692 131.089C61.1502 131.325 60.5337 131.444 59.8425 131.444C59.1138 131.444 58.463 131.304 57.8901 131.023C57.3234 130.743 56.8408 130.357 56.4422 129.865C56.0499 129.373 55.7509 128.806 55.5454 128.165C55.3399 127.523 55.2372 126.845 55.2372 126.128V125.194C55.2372 124.161 55.368 123.186 55.6295 122.27C55.8911 121.349 56.2927 120.536 56.8345 119.832C57.3826 119.129 58.0832 118.578 58.9363 118.179C59.7895 117.774 60.8077 117.572 61.991 117.572ZM74.9287 123.317V125.54C74.9287 126.605 74.8228 127.514 74.6111 128.268C74.4056 129.015 74.1067 129.622 73.7143 130.089C73.322 130.556 72.8518 130.899 72.3038 131.117C71.762 131.335 71.1548 131.444 70.4822 131.444C69.9467 131.444 69.4485 131.375 68.9876 131.238C68.533 131.101 68.122 130.886 67.7546 130.594C67.3871 130.301 67.0726 129.924 66.8111 129.463C66.5558 128.996 66.3565 128.439 66.2132 127.791C66.0762 127.144 66.0077 126.393 66.0077 125.54V123.317C66.0077 122.246 66.1136 121.343 66.3253 120.608C66.5371 119.867 66.8391 119.266 67.2314 118.805C67.6238 118.338 68.0909 117.998 68.6327 117.787C69.1807 117.575 69.791 117.469 70.4636 117.469C71.0054 117.469 71.5036 117.538 71.9582 117.675C72.419 117.805 72.83 118.014 73.1912 118.3C73.5586 118.587 73.87 118.961 74.1254 119.421C74.3869 119.876 74.5862 120.427 74.7232 121.075C74.8602 121.716 74.9287 122.464 74.9287 123.317ZM72.6774 125.858V122.98C72.6774 122.439 72.6463 121.962 72.584 121.551C72.5218 121.134 72.4283 120.782 72.3038 120.496C72.1855 120.203 72.036 119.966 71.8554 119.786C71.6748 119.599 71.4693 119.465 71.2389 119.384C71.0085 119.297 70.75 119.253 70.4636 119.253C70.1148 119.253 69.8034 119.322 69.5294 119.459C69.2554 119.59 69.025 119.801 68.8382 120.094C68.6513 120.387 68.5081 120.773 68.4085 121.252C68.315 121.726 68.2683 122.302 68.2683 122.98V125.858C68.2683 126.406 68.2995 126.888 68.3618 127.305C68.424 127.723 68.5174 128.081 68.642 128.38C68.7665 128.672 68.916 128.915 69.0904 129.108C69.271 129.295 69.4765 129.432 69.7069 129.519C69.9436 129.607 70.202 129.65 70.4822 129.65C70.8372 129.65 71.1517 129.582 71.4257 129.445C71.6997 129.308 71.9301 129.09 72.117 128.791C72.3038 128.486 72.4439 128.09 72.5373 127.604C72.6307 127.119 72.6774 126.536 72.6774 125.858ZM78.7867 121.15L80.711 124.503L82.6727 121.15H85.1481L82.0842 126.11L85.2696 131.257H82.7941L80.739 127.763L78.6839 131.257H76.1991L79.3752 126.11L76.3206 121.15H78.7867Z" fill="#9CA1B3"/>
<rect x="0.863403" y="122.822" width="28.6966" height="3.18851" fill="#62687D"/>
<rect x="16.8058" y="135.576" width="12.754" height="3.18851" fill="#495067"/>
<rect x="16.8058" y="148.33" width="12.754" height="3.18851" fill="#495067"/>
<rect x="16.8058" y="161.084" width="12.754" height="3.18851" fill="#495067"/>
<rect x="16.8058" y="173.839" width="12.754" height="3.18851" fill="#495067"/>
<rect x="16.8058" y="186.593" width="12.754" height="3.18851" fill="#495067"/>
<rect x="16.8058" y="199.347" width="12.754" height="3.18851" fill="#495067"/>
<rect x="16.8058" y="212.101" width="12.754" height="3.18851" fill="#495067"/>
<rect x="16.8058" y="224.855" width="12.754" height="3.18851" fill="#495067"/>
</g>
<g opacity="0.7">
<path d="M48.1097 357.442V359.235H38.9926V357.694L43.4204 352.865C43.9061 352.317 44.2891 351.843 44.5694 351.445C44.8496 351.046 45.0458 350.688 45.1579 350.37C45.2762 350.047 45.3354 349.732 45.3354 349.427C45.3354 348.997 45.2544 348.62 45.0925 348.297C44.9368 347.967 44.7064 347.708 44.4012 347.521C44.0961 347.328 43.7255 347.232 43.2896 347.232C42.7852 347.232 42.3617 347.341 42.0192 347.559C41.6767 347.777 41.4182 348.079 41.2439 348.465C41.0695 348.845 40.9823 349.281 40.9823 349.773H38.731C38.731 348.982 38.9116 348.259 39.2728 347.605C39.634 346.945 40.1571 346.422 40.8422 346.036C41.5272 345.644 42.3524 345.448 43.3176 345.448C44.2269 345.448 44.9991 345.6 45.6343 345.905C46.2695 346.21 46.7521 346.643 47.0822 347.204C47.4185 347.764 47.5866 348.427 47.5866 349.193C47.5866 349.617 47.5181 350.037 47.3811 350.454C47.2441 350.872 47.0479 351.289 46.7926 351.706C46.5435 352.117 46.2477 352.531 45.9052 352.949C45.5627 353.36 45.1859 353.777 44.7749 354.2L41.8324 357.442H48.1097ZM50.0901 358.114C50.0901 357.766 50.2084 357.473 50.4451 357.236C50.6817 356.993 51.0024 356.872 51.4072 356.872C51.8182 356.872 52.139 356.993 52.3694 357.236C52.606 357.473 52.7244 357.766 52.7244 358.114C52.7244 358.463 52.606 358.756 52.3694 358.992C52.139 359.229 51.8182 359.347 51.4072 359.347C51.0024 359.347 50.6817 359.229 50.4451 358.992C50.2084 358.756 50.0901 358.463 50.0901 358.114ZM61.991 345.55H62.2712V347.391H62.1124C61.309 347.391 60.6147 347.515 60.0293 347.764C59.4501 348.013 58.9737 348.356 58.6001 348.792C58.2264 349.228 57.9462 349.738 57.7593 350.324C57.5787 350.903 57.4884 351.519 57.4884 352.173V354.312C57.4884 354.854 57.5476 355.334 57.6659 355.751C57.7842 356.162 57.9493 356.508 58.161 356.788C58.379 357.062 58.6281 357.271 58.9083 357.414C59.1886 357.557 59.4906 357.629 59.8144 357.629C60.1507 357.629 60.4559 357.56 60.7299 357.423C61.0039 357.28 61.2374 357.084 61.4305 356.835C61.6235 356.586 61.7699 356.29 61.8695 355.947C61.9692 355.605 62.019 355.231 62.019 354.826C62.019 354.44 61.9692 354.079 61.8695 353.743C61.7761 353.4 61.636 353.101 61.4492 352.846C61.2623 352.584 61.0288 352.382 60.7486 352.239C60.4745 352.089 60.1569 352.014 59.7957 352.014C59.3474 352.014 58.9395 352.12 58.572 352.332C58.2108 352.544 57.9181 352.821 57.6939 353.163C57.476 353.5 57.3577 353.858 57.339 354.238L56.4796 353.957C56.5294 353.378 56.6571 352.858 56.8626 352.397C57.0743 351.937 57.3514 351.544 57.6939 351.22C58.0365 350.897 58.4319 350.651 58.8803 350.483C59.3349 350.308 59.8331 350.221 60.3749 350.221C61.035 350.221 61.608 350.346 62.0937 350.595C62.5795 350.844 62.9811 351.183 63.2987 351.613C63.6226 352.036 63.8623 352.522 64.018 353.07C64.1799 353.612 64.2609 354.179 64.2609 354.77C64.2609 355.424 64.1613 356.034 63.962 356.601C63.7627 357.162 63.47 357.654 63.0839 358.077C62.704 358.5 62.2401 358.831 61.692 359.067C61.1502 359.304 60.5337 359.422 59.8425 359.422C59.1138 359.422 58.463 359.282 57.8901 359.002C57.3234 358.722 56.8408 358.335 56.4422 357.843C56.0499 357.352 55.7509 356.785 55.5454 356.143C55.3399 355.502 55.2372 354.823 55.2372 354.107V353.173C55.2372 352.139 55.368 351.164 55.6295 350.249C55.8911 349.327 56.2927 348.515 56.8345 347.811C57.3826 347.107 58.0832 346.556 58.9363 346.157C59.7895 345.753 60.8077 345.55 61.991 345.55ZM74.9287 351.295V353.518C74.9287 354.583 74.8228 355.493 74.6111 356.246C74.4056 356.993 74.1067 357.601 73.7143 358.068C73.322 358.535 72.8518 358.877 72.3038 359.095C71.762 359.313 71.1548 359.422 70.4822 359.422C69.9467 359.422 69.4485 359.354 68.9876 359.217C68.533 359.08 68.122 358.865 67.7546 358.572C67.3871 358.279 67.0726 357.903 66.8111 357.442C66.5558 356.975 66.3565 356.417 66.2132 355.77C66.0762 355.122 66.0077 354.372 66.0077 353.518V351.295C66.0077 350.224 66.1136 349.321 66.3253 348.586C66.5371 347.845 66.8391 347.244 67.2314 346.783C67.6238 346.316 68.0909 345.977 68.6327 345.765C69.1807 345.553 69.791 345.448 70.4636 345.448C71.0054 345.448 71.5036 345.516 71.9582 345.653C72.419 345.784 72.83 345.992 73.1912 346.279C73.5586 346.565 73.87 346.939 74.1254 347.4C74.3869 347.854 74.5862 348.406 74.7232 349.053C74.8602 349.695 74.9287 350.442 74.9287 351.295ZM72.6774 353.836V350.959C72.6774 350.417 72.6463 349.941 72.584 349.53C72.5218 349.112 72.4283 348.761 72.3038 348.474C72.1855 348.181 72.036 347.945 71.8554 347.764C71.6748 347.577 71.4693 347.443 71.2389 347.363C71.0085 347.275 70.75 347.232 70.4636 347.232C70.1148 347.232 69.8034 347.3 69.5294 347.437C69.2554 347.568 69.025 347.78 68.8382 348.072C68.6513 348.365 68.5081 348.751 68.4085 349.231C68.315 349.704 68.2683 350.28 68.2683 350.959V353.836C68.2683 354.384 68.2995 354.867 68.3618 355.284C68.424 355.701 68.5174 356.059 68.642 356.358C68.7665 356.651 68.916 356.894 69.0904 357.087C69.271 357.274 69.4765 357.411 69.7069 357.498C69.9436 357.585 70.202 357.629 70.4822 357.629C70.8372 357.629 71.1517 357.56 71.4257 357.423C71.6997 357.286 71.9301 357.068 72.117 356.769C72.3038 356.464 72.4439 356.069 72.5373 355.583C72.6307 355.097 72.6774 354.515 72.6774 353.836ZM78.7867 349.128L80.711 352.482L82.6727 349.128H85.1481L82.0842 354.088L85.2696 359.235H82.7941L80.739 355.742L78.6839 359.235H76.1991L79.3752 354.088L76.3206 349.128H78.7867Z" fill="#9CA1B3"/>
<rect x="0.863403" y="350.801" width="28.6966" height="3.18851" fill="#62687D"/>
<rect x="16.8058" y="363.555" width="12.754" height="3.18851" fill="#495067"/>
<rect x="16.8058" y="376.309" width="12.754" height="3.18851" fill="#495067"/>
<rect x="16.8058" y="389.063" width="12.754" height="3.18851" fill="#495067"/>
<rect x="16.8058" y="401.817" width="12.754" height="3.18851" fill="#495067"/>
<rect x="16.8058" y="414.571" width="12.754" height="3.18851" fill="#495067"/>
<rect x="16.8058" y="427.325" width="12.754" height="3.18851" fill="#495067"/>
<rect x="16.8058" y="440.079" width="12.754" height="3.18851" fill="#495067"/>
<rect x="16.8058" y="452.833" width="12.754" height="3.18851" fill="#495067"/>
</g>
<g opacity="0.7">
<path d="M48.1097 585.42V587.214H38.9926V585.673L43.4204 580.843C43.9061 580.295 44.2891 579.822 44.5694 579.423C44.8496 579.025 45.0458 578.667 45.1579 578.349C45.2762 578.025 45.3354 577.711 45.3354 577.405C45.3354 576.976 45.2544 576.599 45.0925 576.275C44.9368 575.945 44.7064 575.687 44.4012 575.5C44.0961 575.307 43.7255 575.21 43.2896 575.21C42.7852 575.21 42.3617 575.319 42.0192 575.537C41.6767 575.755 41.4182 576.057 41.2439 576.443C41.0695 576.823 40.9823 577.259 40.9823 577.751H38.731C38.731 576.96 38.9116 576.238 39.2728 575.584C39.634 574.924 40.1571 574.401 40.8422 574.015C41.5272 573.622 42.3524 573.426 43.3176 573.426C44.2269 573.426 44.9991 573.579 45.6343 573.884C46.2695 574.189 46.7521 574.622 47.0822 575.182C47.4185 575.743 47.5866 576.406 47.5866 577.172C47.5866 577.595 47.5181 578.016 47.3811 578.433C47.2441 578.85 47.0479 579.268 46.7926 579.685C46.5435 580.096 46.2477 580.51 45.9052 580.927C45.5627 581.338 45.1859 581.755 44.7749 582.179L41.8324 585.42H48.1097ZM50.0901 586.093C50.0901 585.744 50.2084 585.451 50.4451 585.215C50.6817 584.972 51.0024 584.851 51.4072 584.851C51.8182 584.851 52.139 584.972 52.3694 585.215C52.606 585.451 52.7244 585.744 52.7244 586.093C52.7244 586.442 52.606 586.734 52.3694 586.971C52.139 587.208 51.8182 587.326 51.4072 587.326C51.0024 587.326 50.6817 587.208 50.4451 586.971C50.2084 586.734 50.0901 586.442 50.0901 586.093ZM61.991 573.529H62.2712V575.369H62.1124C61.309 575.369 60.6147 575.494 60.0293 575.743C59.4501 575.992 58.9737 576.334 58.6001 576.77C58.2264 577.206 57.9462 577.717 57.7593 578.302C57.5787 578.881 57.4884 579.498 57.4884 580.152V582.291C57.4884 582.833 57.5476 583.312 57.6659 583.73C57.7842 584.141 57.9493 584.486 58.161 584.766C58.379 585.04 58.6281 585.249 58.9083 585.392C59.1886 585.536 59.4906 585.607 59.8144 585.607C60.1507 585.607 60.4559 585.539 60.7299 585.402C61.0039 585.258 61.2374 585.062 61.4305 584.813C61.6235 584.564 61.7699 584.268 61.8695 583.926C61.9692 583.583 62.019 583.21 62.019 582.805C62.019 582.419 61.9692 582.057 61.8695 581.721C61.7761 581.379 61.636 581.08 61.4492 580.824C61.2623 580.563 61.0288 580.36 60.7486 580.217C60.4745 580.068 60.1569 579.993 59.7957 579.993C59.3474 579.993 58.9395 580.099 58.572 580.311C58.2108 580.522 57.9181 580.799 57.6939 581.142C57.476 581.478 57.3577 581.836 57.339 582.216L56.4796 581.936C56.5294 581.357 56.6571 580.837 56.8626 580.376C57.0743 579.915 57.3514 579.523 57.6939 579.199C58.0365 578.875 58.4319 578.629 58.8803 578.461C59.3349 578.287 59.8331 578.199 60.3749 578.199C61.035 578.199 61.608 578.324 62.0937 578.573C62.5795 578.822 62.9811 579.162 63.2987 579.591C63.6226 580.015 63.8623 580.501 64.018 581.049C64.1799 581.59 64.2609 582.157 64.2609 582.749C64.2609 583.403 64.1613 584.013 63.962 584.58C63.7627 585.14 63.47 585.632 63.0839 586.056C62.704 586.479 62.2401 586.809 61.692 587.046C61.1502 587.282 60.5337 587.401 59.8425 587.401C59.1138 587.401 58.463 587.261 57.8901 586.98C57.3234 586.7 56.8408 586.314 56.4422 585.822C56.0499 585.33 55.7509 584.763 55.5454 584.122C55.3399 583.48 55.2372 582.802 55.2372 582.085V581.151C55.2372 580.118 55.368 579.143 55.6295 578.228C55.8911 577.306 56.2927 576.493 56.8345 575.789C57.3826 575.086 58.0832 574.535 58.9363 574.136C59.7895 573.731 60.8077 573.529 61.991 573.529ZM74.9287 579.274V581.497C74.9287 582.562 74.8228 583.471 74.6111 584.225C74.4056 584.972 74.1067 585.579 73.7143 586.046C73.322 586.513 72.8518 586.856 72.3038 587.074C71.762 587.292 71.1548 587.401 70.4822 587.401C69.9467 587.401 69.4485 587.332 68.9876 587.195C68.533 587.058 68.122 586.843 67.7546 586.551C67.3871 586.258 67.0726 585.881 66.8111 585.42C66.5558 584.953 66.3565 584.396 66.2132 583.748C66.0762 583.101 66.0077 582.35 66.0077 581.497V579.274C66.0077 578.203 66.1136 577.3 66.3253 576.565C66.5371 575.824 66.8391 575.223 67.2314 574.762C67.6238 574.295 68.0909 573.955 68.6327 573.744C69.1807 573.532 69.791 573.426 70.4636 573.426C71.0054 573.426 71.5036 573.495 71.9582 573.632C72.419 573.762 72.83 573.971 73.1912 574.257C73.5586 574.544 73.87 574.918 74.1254 575.378C74.3869 575.833 74.5862 576.384 74.7232 577.032C74.8602 577.673 74.9287 578.421 74.9287 579.274ZM72.6774 581.815V578.937C72.6774 578.396 72.6463 577.919 72.584 577.508C72.5218 577.091 72.4283 576.739 72.3038 576.453C72.1855 576.16 72.036 575.923 71.8554 575.743C71.6748 575.556 71.4693 575.422 71.2389 575.341C71.0085 575.254 70.75 575.21 70.4636 575.21C70.1148 575.21 69.8034 575.279 69.5294 575.416C69.2554 575.547 69.025 575.758 68.8382 576.051C68.6513 576.344 68.5081 576.73 68.4085 577.209C68.315 577.683 68.2683 578.259 68.2683 578.937V581.815C68.2683 582.363 68.2995 582.845 68.3618 583.262C68.424 583.68 68.5174 584.038 68.642 584.337C68.7665 584.629 68.916 584.872 69.0904 585.065C69.271 585.252 69.4765 585.389 69.7069 585.476C69.9436 585.564 70.202 585.607 70.4822 585.607C70.8372 585.607 71.1517 585.539 71.4257 585.402C71.6997 585.265 71.9301 585.047 72.117 584.748C72.3038 584.443 72.4439 584.047 72.5373 583.561C72.6307 583.076 72.6774 582.493 72.6774 581.815ZM78.7867 577.107L80.711 580.46L82.6727 577.107H85.1481L82.0842 582.067L85.2696 587.214H82.7941L80.739 583.72L78.6839 587.214H76.1991L79.3752 582.067L76.3206 577.107H78.7867Z" fill="#9CA1B3"/>
<rect x="0.863403" y="578.779" width="28.6966" height="3.18851" fill="#62687D"/>
<rect x="16.8058" y="591.533" width="12.754" height="3.18851" fill="#495067"/>
<rect x="16.8058" y="604.287" width="12.754" height="3.18851" fill="#495067"/>
<rect x="16.8058" y="617.042" width="12.754" height="3.18851" fill="#495067"/>
<rect x="16.8058" y="629.795" width="12.754" height="3.18851" fill="#495067"/>
<rect x="16.8058" y="642.55" width="12.754" height="3.18851" fill="#495067"/>
<rect x="16.8058" y="655.303" width="12.754" height="3.18851" fill="#495067"/>
<rect x="16.8058" y="668.058" width="12.754" height="3.18851" fill="#495067"/>
<rect x="16.8058" y="680.812" width="12.754" height="3.18851" fill="#495067"/>
</g>
</svg>
