<svg width="69" height="119" viewBox="0 0 69 119" fill="none" xmlns="http://www.w3.org/2000/svg">
<path d="M58.1559 50.3071C58.1559 50.3071 71.0865 58.4986 68.2108 71.9186C66.2937 80.8728 58.5232 84.4966 53.5641 85.9177C51.4325 86.5277 49.3142 84.9136 49.3142 82.6975V74.3157L58.1559 50.3071Z" fill="url(#paint0_linear_168_272)"/>
<path d="M11.0155 50.3071C11.0155 50.3071 -1.91512 58.4986 0.960595 71.9186C2.87908 80.8742 10.6482 84.4966 15.6073 85.9177C17.7389 86.5277 19.8572 84.9136 19.8572 82.6988V74.3157L11.0155 50.3071Z" fill="url(#paint1_linear_168_272)"/>
<path d="M41.6228 82.1908H27.5486C27.0803 82.1908 26.6165 82.0985 26.1839 81.9193C25.7512 81.7401 25.3581 81.4774 25.0269 81.1462C24.6958 80.8151 24.4331 80.422 24.2539 79.9893C24.0747 79.5566 23.9824 79.0929 23.9824 78.6246V72.4924C23.9824 71.5466 24.3581 70.6396 25.0269 69.9708C25.6957 69.302 26.6028 68.9263 27.5486 68.9263H41.6255C42.5713 68.9263 43.4784 69.302 44.1471 69.9708C44.8159 70.6396 45.1917 71.5466 45.1917 72.4924V78.6259C45.1917 79.5717 44.8159 80.4788 44.1471 81.1476C43.4784 81.8164 42.5713 82.1921 41.6255 82.1921L41.6228 82.1908Z" fill="#13151D"/>
<path d="M60.7807 43.1723C60.7976 54.5892 56.7304 65.6357 49.3141 74.3158H19.8571C12.4409 65.6356 8.37372 54.5892 8.39044 43.1723C8.37592 34.2602 10.8538 25.5217 15.5442 17.9437C20.1729 10.4644 26.7577 4.39239 34.5869 0.383789C42.4153 4.39149 48.9986 10.4639 53.6243 17.9437C58.3153 25.5215 60.7941 34.26 60.7807 43.1723Z" fill="#E4E4EF"/>
<path d="M22.3025 43.1722C22.3025 55.0558 24.3269 65.9298 27.6785 74.3157H19.8571C12.4401 65.6358 8.3724 54.5893 8.3891 43.1722C8.37443 34.2601 10.8523 25.5215 15.5429 17.9436C20.1708 10.4659 26.7535 4.39454 34.5802 0.38501C30.9068 4.39358 27.8193 10.4909 25.6581 17.9436C25.5562 18.2895 25.457 18.6408 25.3605 18.992C23.4166 26.0935 22.3025 34.3546 22.3025 43.1722Z" fill="#CACADB"/>
<path d="M53.6243 17.9437H15.5442C20.172 10.466 26.7548 4.39455 34.5816 0.38513L34.5856 0.383789C42.414 4.39144 48.9986 10.4638 53.6243 17.9437Z" fill="#13151D"/>
<path d="M34.5816 0.38501C30.9081 4.39358 27.8193 10.4909 25.6568 17.9436H15.5442C20.172 10.4659 26.7548 4.39443 34.5816 0.38501Z" fill="url(#paint2_linear_168_272)"/>
<path d="M46.897 31.7459C53.6968 38.5457 53.6968 49.5699 46.897 56.3684C40.0972 63.1682 29.0729 63.1682 22.2744 56.3684C15.4746 49.5699 15.4746 38.5457 22.2744 31.7459C29.0729 24.946 40.0972 24.946 46.897 31.7459Z" fill="#13151D"/>
<path d="M42.1147 36.5279C43.1034 37.5166 43.8878 38.6904 44.4229 39.9823C44.958 41.2741 45.2334 42.6587 45.2334 44.057C45.2334 45.4553 44.958 46.8399 44.4229 48.1317C43.8878 49.4236 43.1034 50.5974 42.1147 51.5861C41.126 52.5749 39.9522 53.3592 38.6603 53.8943C37.3685 54.4294 35.9839 54.7048 34.5856 54.7048C33.1873 54.7048 31.8027 54.4294 30.5108 53.8943C29.219 53.3592 28.0452 52.5749 27.0564 51.5861C25.0596 49.5893 23.9377 46.881 23.9377 44.057C23.9377 41.233 25.0596 38.5247 27.0564 36.5279C29.0533 34.531 31.7616 33.4092 34.5856 33.4092C37.4095 33.4092 40.1179 34.531 42.1147 36.5279Z" fill="url(#paint3_linear_168_272)"/>
<path d="M34.6714 118.343L44.7102 100.953C47.6221 95.9097 43.9822 89.6033 38.1571 89.6033H31.1843C25.3591 89.6033 21.7192 95.9084 24.6312 100.953L34.6714 118.343Z" fill="#E8A328"/>
<path d="M34.6714 118.343L39.7753 100.955C41.2554 95.9097 39.4053 89.6033 36.4438 89.6033H32.8991C29.9362 89.6033 28.0861 95.9097 29.5675 100.953L34.6714 118.343Z" fill="#FFBF3E"/>
<defs>
<linearGradient id="paint0_linear_168_272" x1="47.6612" y1="60.8018" x2="65.4102" y2="78.5495" gradientUnits="userSpaceOnUse">
<stop stop-color="#F88A25"/>
<stop offset="0.505" stop-color="#FAB42D"/>
<stop offset="1" stop-color="#F8B025"/>
</linearGradient>
<linearGradient id="paint1_linear_168_272" x1="1.8213" y1="58.8605" x2="23.4515" y2="80.4907" gradientUnits="userSpaceOnUse">
<stop stop-color="#F88A25"/>
<stop offset="0.505" stop-color="#FAB42D"/>
<stop offset="1" stop-color="#F8B025"/>
</linearGradient>
<linearGradient id="paint2_linear_168_272" x1="23.7852" y1="7.886" x2="29.7498" y2="13.8519" gradientUnits="userSpaceOnUse">
<stop stop-color="#F88A25"/>
<stop offset="0.505" stop-color="#FAB42D"/>
<stop offset="1" stop-color="#F8B025"/>
</linearGradient>
<linearGradient id="paint3_linear_168_272" x1="27.0564" y1="36.5279" x2="42.1147" y2="51.5861" gradientUnits="userSpaceOnUse">
<stop stop-color="#F88A25"/>
<stop offset="0.505" stop-color="#FAB42D"/>
<stop offset="1" stop-color="#F8B025"/>
</linearGradient>
</defs>
</svg>
