<svg width="177" height="181" viewBox="0 0 177 181" fill="none" xmlns="http://www.w3.org/2000/svg">
<path d="M3.77373 68.6439C1.37314 68.0007 -0.0624304 65.5287 0.699964 63.1632C5.68236 47.7046 14.7661 33.8531 27.0193 23.1074C40.4022 11.3708 56.965 3.86633 74.613 1.54291C92.2611 -0.780496 110.202 2.18154 126.166 10.0544C142.131 17.9273 155.403 30.3574 164.303 45.773C173.203 61.1885 177.332 78.897 176.168 96.6592C175.003 114.421 168.598 131.44 157.762 145.561C146.926 159.683 132.146 170.275 115.29 175.997C99.8573 181.235 83.3196 182.176 67.4409 178.762C65.0112 178.239 63.5881 175.76 64.2314 173.36C64.8746 170.959 67.3403 169.547 69.7729 170.056C83.929 173.018 98.6501 172.141 112.397 167.474C127.567 162.325 140.869 152.792 150.622 140.083C160.375 127.373 166.139 112.057 167.187 96.0706C168.235 80.0846 164.519 64.1469 156.508 50.273C148.498 36.399 136.554 25.2119 122.186 18.1263C107.818 11.0407 91.671 8.37487 75.7878 10.4659C59.9045 12.557 44.9981 19.311 32.9534 29.8739C22.0387 39.4459 13.9182 51.756 9.4052 65.4965C8.62967 67.8576 6.17434 69.2872 3.77373 68.6439Z" fill="#23253D"/>
</svg>
